<svg width="182" height="182" viewBox="0 0 182 182" fill="none" xmlns="http://www.w3.org/2000/svg">
<circle cx="91" cy="91" r="91" fill="#1E74DA"/>
<path d="M70.8272 63.7321C70.8272 63.5922 70.8691 63.4804 70.953 63.3965C71.0649 63.3126 71.2187 63.2706 71.4145 63.2706H84.7125C84.9362 63.2706 85.09 63.3126 85.1739 63.3965C85.2858 63.4804 85.3417 63.5922 85.3417 63.7321C85.3417 63.8439 85.2998 63.9418 85.2159 64.0257C85.132 64.0816 84.9922 64.1515 84.7964 64.2354L82.8667 64.7808C81.9997 65.1164 81.2307 65.6897 80.5595 66.5007C79.9163 67.3118 79.3429 68.5003 78.8395 70.0664L64.1153 116.756C63.9754 117.204 63.8775 117.637 63.8216 118.057C63.7657 118.448 63.7377 118.882 63.7377 119.357V121.329C63.7377 121.525 63.6958 121.692 63.6119 121.832C63.528 121.944 63.3741 122 63.1504 122H55.6414C55.4177 122 55.2499 121.944 55.138 121.832C55.0262 121.692 54.9702 121.511 54.9702 121.287V119.357C54.9702 118.994 54.9283 118.63 54.8444 118.266C54.7605 117.875 54.6347 117.441 54.4669 116.966L37.9387 66.5007C37.7709 65.9694 37.5891 65.5778 37.3934 65.3261C37.2256 65.0744 36.9599 64.9066 36.5963 64.8227L34.373 64.2354C33.9535 64.0956 33.7438 63.9278 33.7438 63.7321C33.7438 63.5922 33.7997 63.4804 33.9116 63.3965C34.0234 63.3126 34.1772 63.2706 34.373 63.2706H52.7469C52.9707 63.2706 53.1245 63.3126 53.2084 63.3965C53.3202 63.4804 53.3762 63.5922 53.3762 63.7321C53.3762 63.8439 53.3202 63.9418 53.2084 64.0257C53.0965 64.1096 52.9427 64.1795 52.7469 64.2354L48.4681 64.7388C47.8808 64.8507 47.5172 65.0884 47.3774 65.452C47.2375 65.7876 47.2655 66.277 47.4613 66.9202L63.528 116.672L62.0597 119.189L77.5811 70.1084C78.0006 68.738 77.9866 67.5914 77.5391 66.6685C77.1196 65.7456 76.0289 65.0884 74.267 64.6969L71.3725 64.2354C71.1768 64.1515 71.0369 64.0816 70.953 64.0257C70.8691 63.9418 70.8272 63.8439 70.8272 63.7321ZM93.3436 63.2706H127.239C127.826 63.2706 128.358 63.1587 128.833 62.935C129.308 62.7113 129.728 62.5015 130.091 62.3058C130.483 62.082 130.777 61.9702 130.972 61.9702C131.168 61.9702 131.322 62.0401 131.434 62.1799C131.546 62.2918 131.644 62.5715 131.727 63.0189L134.412 77.5335C134.496 77.7852 134.496 77.9949 134.412 78.1627C134.356 78.3025 134.258 78.4004 134.119 78.4564C133.951 78.4843 133.797 78.4564 133.657 78.3725C133.545 78.2886 133.433 78.1347 133.322 77.911C131.839 74.0517 130.483 71.1711 129.252 69.2694C128.022 67.3397 126.791 66.0533 125.561 65.41C124.358 64.7388 123.058 64.4033 121.66 64.4033H114.906V119.147C114.906 119.539 115.032 119.833 115.283 120.028C115.563 120.224 115.968 120.364 116.5 120.448L120.191 121.035C120.611 121.119 120.821 121.287 120.821 121.539C120.821 121.846 120.611 122 120.191 122H100.811C100.587 122 100.419 121.958 100.307 121.874C100.195 121.762 100.139 121.65 100.139 121.539C100.139 121.287 100.349 121.119 100.769 121.035L104.502 120.448C105.034 120.364 105.425 120.224 105.677 120.028C105.928 119.833 106.054 119.539 106.054 119.147V64.4033H99.3004C97.9021 64.4033 96.5877 64.7668 95.3572 65.4939C94.1546 66.1931 92.9381 67.5215 91.7076 69.4791C90.4771 71.4088 89.1347 74.2194 87.6804 77.911C87.5686 78.1347 87.4427 78.2886 87.3029 78.3725C87.191 78.4564 87.0512 78.4843 86.8834 78.4564C86.7156 78.4004 86.6037 78.3025 86.5478 78.1627C86.5198 77.9949 86.5198 77.7852 86.5478 77.5335L89.2745 63.0189C89.3584 62.5715 89.4563 62.2918 89.5681 62.1799C89.708 62.0401 89.8618 61.9702 90.0296 61.9702C90.1974 61.9702 90.4351 62.082 90.7427 62.3058C91.0504 62.5015 91.4139 62.7113 91.8334 62.935C92.2809 63.1587 92.7843 63.2706 93.3436 63.2706ZM140.971 122.713C140.048 122.713 139.223 122.475 138.496 122C137.769 121.497 137.181 120.853 136.734 120.07C136.314 119.287 136.105 118.406 136.105 117.427C136.105 116.505 136.314 115.638 136.734 114.827C137.181 114.016 137.769 113.386 138.496 112.939C139.251 112.463 140.09 112.226 141.013 112.226C141.936 112.226 142.761 112.463 143.488 112.939C144.243 113.414 144.83 114.044 145.25 114.827C145.697 115.61 145.921 116.477 145.921 117.427C145.921 118.378 145.697 119.259 145.25 120.07C144.83 120.853 144.243 121.497 143.488 122C142.761 122.475 141.922 122.713 140.971 122.713Z" fill="#FAF6EC"/>
</svg>
