<svg width="146" height="140" viewBox="0 0 146 140" fill="none" xmlns="http://www.w3.org/2000/svg">
<rect x="0.409346" y="0.409346" width="145.181" height="138.905" rx="32.6112" fill="#B3A98E" stroke="#3C3C3C" stroke-width="0.818692"/>
<rect x="5.5944" y="5.32146" width="134.811" height="129.08" rx="26.3346" fill="#ECE3CD" fill-opacity="0.49" stroke="#3C3C3C" stroke-width="0.818692"/>
<path d="M20.0994 25.5949L18.3841 25.9491C15.1153 26.6242 12.9465 29.7396 13.4483 33.0395L14.8284 42.1163C15.1438 44.1911 14.4014 46.2864 12.85 47.6997L9.90848 50.3794C8.17953 51.9544 7.4697 54.3601 8.0667 56.6215L15.5589 85.0011C15.9105 86.3328 15.8143 87.7431 15.2851 89.0147L9.19195 103.656C7.93188 106.684 9.2154 110.172 12.1377 111.661L18.9213 115.117C20.38 115.86 21.121 117.521 20.6992 119.103C20.0313 121.607 22.245 123.934 24.7795 123.39L28.1792 122.662C30.7637 122.108 33.3834 123.437 34.4635 125.849L35.0428 127.143C36.0539 129.401 38.2972 130.854 40.7714 130.854H99.2072C101.827 130.854 104.172 129.227 105.088 126.772L105.251 126.335C106.263 123.622 109 121.954 111.875 122.297L123.123 123.639C127.142 124.118 130.557 120.726 130.104 116.704L129.044 107.283C128.811 105.214 129.619 103.163 131.202 101.81L133.758 99.6251C135.78 97.8972 136.493 95.0829 135.538 92.6009L131.409 81.8653C131.132 81.1463 130.991 80.3825 130.991 79.6122V64.0052C130.991 63.0116 131.227 62.0322 131.679 61.1475L136.791 51.1504C137.017 50.709 137.189 50.2425 137.305 49.7605L138.779 43.6337C139.354 41.2419 138.479 38.7344 136.54 37.2199L132.961 34.4237C131.696 33.4351 130.858 31.9992 130.619 30.4113L129.684 24.1999C129.139 20.5778 125.61 18.1987 122.048 19.0522L120.925 19.3214C118.025 20.0161 115.141 18.1184 114.632 15.1806C114.164 12.4812 111.67 10.6167 108.948 10.932L92.3847 12.8509C91.7458 12.925 91.0992 12.9003 90.4677 12.7779L81.2855 10.9977C79.2589 10.6048 77.1686 11.2335 75.6951 12.6793L73.442 14.8899C71.8208 16.4805 69.4668 17.0712 67.2867 16.4345L56.2599 13.2143C55.6883 13.0474 55.0959 12.9626 54.5004 12.9626H31.3832C27.9167 12.9626 25.1066 15.7728 25.1066 19.2393V19.4479C25.1066 22.4251 23.015 24.9927 20.0994 25.5949Z" fill="#FAEBC4" stroke="#3C3C3C" stroke-width="0.545794"/>
<circle cx="72.8636" cy="69.8616" r="62.357" fill="#F8EED2" stroke="#3C3C3C" stroke-width="0.818692"/>
<path d="M49.6455 64.7549H43.3056V63.183H44.6941V47.9881H43.3056V46.4162H49.2001C50.021 46.4162 50.7808 46.5035 51.4794 46.6782C52.178 46.8528 52.7718 47.1235 53.2608 47.4903C53.7499 47.8571 54.1254 48.3374 54.3874 48.9312C54.6668 49.5076 54.8065 50.1975 54.8065 51.0009C54.8065 52.0837 54.5446 53.0356 54.0206 53.8565C53.4966 54.6773 52.702 55.2362 51.6366 55.5331C52.1256 55.6379 52.6059 55.8126 53.0775 56.0571C53.549 56.3016 53.9682 56.616 54.335 57.0002C54.6668 57.3845 54.9375 57.8298 55.1471 58.3363C55.3567 58.8428 55.4615 59.4105 55.4615 60.0392C55.4615 60.8252 55.2956 61.515 54.9637 62.1089C54.6493 62.6852 54.2302 63.1655 53.7062 63.5498C53.1473 63.9515 52.5186 64.2571 51.8199 64.4667C51.1213 64.6588 50.3965 64.7549 49.6455 64.7549ZM46.3445 56.3191V63.183H49.5145C50.1083 63.183 50.6585 63.1131 51.165 62.9734C51.689 62.8337 52.1518 62.6154 52.5535 62.3185C52.9377 62.0565 53.2434 61.7159 53.4704 61.2967C53.6975 60.8776 53.811 60.3885 53.811 59.8296C53.811 59.2183 53.68 58.6944 53.418 58.2577C53.1561 57.8036 52.8155 57.4369 52.3963 57.1574C51.9422 56.878 51.427 56.6684 50.8506 56.5287C50.2917 56.3889 49.7066 56.3191 49.0953 56.3191H46.3445ZM46.3445 47.9881V54.7472H49.4621C50.5974 54.7472 51.4968 54.4241 52.1605 53.7779C52.8242 53.1142 53.1561 52.2584 53.1561 51.2104C53.1561 50.6166 53.0513 50.1101 52.8417 49.691C52.6496 49.2718 52.3788 48.9399 52.0295 48.6954C51.6977 48.4509 51.3047 48.2763 50.8506 48.1715C50.414 48.0492 49.9249 47.9881 49.3835 47.9881H46.3445ZM62.4873 56.3191C61.9109 56.3191 61.387 56.4326 60.9154 56.6597C60.4613 56.8692 60.0683 57.1662 59.7365 57.5504C59.4745 57.8822 59.2737 58.2665 59.1339 58.7031C58.9942 59.1397 58.9505 59.6026 59.0029 60.0916C59.9985 59.7074 60.9853 59.3231 61.9633 58.9389C62.9589 58.5547 63.9544 58.1792 64.9499 57.8124C64.6705 57.3583 64.3212 57.0002 63.902 56.7383C63.4828 56.4588 63.0113 56.3191 62.4873 56.3191ZM65.8669 63.576C65.4302 64.0126 64.9237 64.3532 64.3474 64.5977C63.7885 64.8422 63.1684 64.9645 62.4873 64.9645C61.7712 64.9645 61.0901 64.8335 60.4438 64.5715C59.8151 64.292 59.2737 63.9253 58.8196 63.4712C58.348 62.9996 57.9725 62.4582 57.693 61.8469C57.4311 61.2181 57.3001 60.5457 57.3001 59.8296C57.3001 59.131 57.4311 58.4673 57.693 57.8386C57.9725 57.2098 58.348 56.6597 58.8196 56.1881C59.2737 55.734 59.8151 55.376 60.4438 55.114C61.0901 54.8345 61.7712 54.6948 62.4873 54.6948C63.0287 54.6948 63.544 54.7996 64.033 55.0092C64.522 55.2188 64.9674 55.4982 65.3691 55.8475C65.7533 56.2143 66.0852 56.6422 66.3646 57.1312C66.6615 57.6203 66.8886 58.153 67.0458 58.7293C65.7708 59.2183 64.5046 59.7074 63.247 60.1964C61.9895 60.668 60.7233 61.1483 59.4483 61.6373C59.7452 62.1613 60.1557 62.5804 60.6796 62.8948C61.2036 63.2092 61.8061 63.3664 62.4873 63.3664C62.9589 63.3664 63.3955 63.2878 63.7972 63.1306C64.1989 62.9559 64.5482 62.7114 64.8451 62.3971L65.8669 63.576ZM74.4412 64.7549H68.992V63.183H71.0093V56.5025H69.2016V54.9306H72.424L72.4502 55.5069C72.4676 55.8737 72.4851 56.2056 72.5026 56.5025C72.52 56.7819 72.5462 57.105 72.5811 57.4718C72.9305 56.6335 73.4894 55.9698 74.2578 55.4807C75.0438 54.9742 75.9083 54.721 76.8514 54.721C77.8644 54.721 78.6591 54.9917 79.2355 55.5331C79.8118 56.0746 80.1175 56.7819 80.1524 57.6552V63.183H81.9077V64.7549H76.4585V63.183H78.5019V58.3101C78.467 57.7862 78.2749 57.3408 77.9256 56.974C77.5937 56.5898 77.0785 56.3802 76.3799 56.3453C75.8734 56.3453 75.3931 56.4326 74.939 56.6073C74.5023 56.7645 74.1181 56.9915 73.7863 57.2884C73.437 57.5853 73.1575 57.9434 72.9479 58.3625C72.7558 58.7642 72.6597 59.2096 72.6597 59.6986V63.183H74.4412V64.7549ZM89.701 64.7549H85.9809V56.5549H83.754V54.9306H85.9809V48.5382H87.6314V54.9306H90.4346V56.5549H87.6314V63.183H89.701V64.7549ZM101.181 63.445C100.709 63.9165 100.15 64.292 99.5042 64.5715C98.8755 64.8335 98.2031 64.9645 97.487 64.9645C96.7534 64.9645 96.0723 64.8335 95.4435 64.5715C94.8148 64.292 94.2646 63.9165 93.793 63.445C93.3215 62.9909 92.946 62.4582 92.6665 61.8469C92.4045 61.2181 92.2735 60.5457 92.2735 59.8296C92.2735 59.131 92.4045 58.4673 92.6665 57.8386C92.946 57.2098 93.3215 56.6597 93.793 56.1881C94.2646 55.734 94.8148 55.376 95.4435 55.114C96.0723 54.8345 96.7534 54.6948 97.487 54.6948C98.2031 54.6948 98.8755 54.8345 99.5042 55.114C100.15 55.376 100.718 55.734 101.207 56.1881C101.661 56.6597 102.019 57.2098 102.281 57.8386C102.561 58.4673 102.7 59.131 102.7 59.8296C102.7 60.5457 102.561 61.2181 102.281 61.8469C102.019 62.4582 101.652 62.9909 101.181 63.445ZM94.972 62.3185C95.2863 62.6503 95.6531 62.9123 96.0723 63.1044C96.4914 63.2791 96.9455 63.3664 97.4346 63.3664C97.9236 63.3664 98.3777 63.2791 98.7969 63.1044C99.2335 62.9123 99.6178 62.6503 99.9496 62.3185C100.264 62.0041 100.508 61.6373 100.683 61.2181C100.875 60.799 100.971 60.3449 100.971 59.8558C100.971 59.3668 100.875 58.9127 100.683 58.4935C100.508 58.0569 100.264 57.6727 99.9496 57.3408C99.6178 57.0264 99.2335 56.7819 98.7969 56.6073C98.3777 56.4151 97.9236 56.3191 97.4346 56.3191C96.9455 56.3191 96.4914 56.4151 96.0723 56.6073C95.6531 56.7819 95.2863 57.0264 94.972 57.3408C94.6401 57.6727 94.3781 58.0569 94.186 58.4935C94.0114 58.9127 93.924 59.3581 93.924 59.8296C93.924 60.3361 94.0114 60.799 94.186 61.2181C94.3781 61.6373 94.6401 62.0041 94.972 62.3185ZM57.3975 90.7549H51.0575V89.183H52.446V73.9881H51.0575V72.4162H56.9521C57.773 72.4162 58.5327 72.5035 59.2314 72.6782C59.93 72.8528 60.5238 73.1235 61.0128 73.4903C61.5019 73.8571 61.8774 74.3374 62.1394 74.9312C62.4188 75.5076 62.5585 76.1975 62.5585 77.0009C62.5585 78.0837 62.2965 79.0356 61.7726 79.8565C61.2486 80.6773 60.4539 81.2362 59.3885 81.5331C59.8776 81.6379 60.3579 81.8126 60.8294 82.0571C61.301 82.3016 61.7202 82.616 62.087 83.0002C62.4188 83.3845 62.6895 83.8298 62.8991 84.3363C63.1087 84.8428 63.2135 85.4105 63.2135 86.0392C63.2135 86.8252 63.0476 87.515 62.7157 88.1089C62.4013 88.6852 61.9822 89.1655 61.4582 89.5498C60.8993 89.9515 60.2706 90.2571 59.5719 90.4667C58.8733 90.6588 58.1485 90.7549 57.3975 90.7549ZM54.0965 82.3191V89.183H57.2665C57.8603 89.183 58.4105 89.1131 58.917 88.9734C59.4409 88.8337 59.9038 88.6154 60.3055 88.3185C60.6897 88.0565 60.9954 87.7159 61.2224 87.2967C61.4495 86.8776 61.563 86.3885 61.563 85.8296C61.563 85.2183 61.432 84.6944 61.17 84.2577C60.908 83.8036 60.5675 83.4369 60.1483 83.1574C59.6942 82.878 59.179 82.6684 58.6026 82.5287C58.0437 82.3889 57.4586 82.3191 56.8473 82.3191H54.0965ZM54.0965 73.9881V80.7472H57.2141C58.3494 80.7472 59.2488 80.4241 59.9125 79.7779C60.5762 79.1142 60.908 78.2584 60.908 77.2104C60.908 76.6166 60.8032 76.1101 60.5937 75.691C60.4015 75.2718 60.1308 74.9399 59.7815 74.6954C59.4497 74.4509 59.0567 74.2763 58.6026 74.1715C58.166 74.0492 57.6769 73.9881 57.1355 73.9881H54.0965ZM70.5013 90.7549H65.0521V89.183H67.0169V72.6782H65.2354V71.1063H68.6674V89.183H70.5013V90.7549ZM77.7927 90.7549H72.3435V89.183H74.256V82.5025H72.3435V80.9306H75.9065V89.183H77.7927V90.7549ZM76.2208 77.289C76.2208 77.6034 76.1073 77.8741 75.8803 78.1012C75.6532 78.3108 75.4 78.4156 75.1205 78.4156C74.8411 78.4156 74.5791 78.3108 74.3346 78.1012C74.1075 77.8741 73.994 77.6034 73.994 77.289C73.994 76.9572 74.1075 76.6865 74.3346 76.4769C74.5791 76.2499 74.8411 76.1363 75.1205 76.1363C75.4 76.1363 75.6532 76.2499 75.8803 76.4769C76.1073 76.6865 76.2208 76.9572 76.2208 77.289ZM85.7916 89.8641C85.547 90.1785 85.2065 90.4405 84.7698 90.6501C84.3507 90.8597 83.818 90.9645 83.1717 90.9645C82.5779 90.9645 81.9928 90.8946 81.4165 90.7549C80.8576 90.5977 80.386 90.327 80.0018 89.9427V87.8207H81.4951V88.9996C81.757 89.1568 82.019 89.2529 82.281 89.2878C82.5605 89.3227 82.8748 89.3402 83.2241 89.3402C83.4163 89.3402 83.6084 89.314 83.8005 89.2616C83.9926 89.2092 84.176 89.1219 84.3507 88.9996C84.4729 88.8948 84.5777 88.7638 84.665 88.6066C84.7524 88.432 84.796 88.2224 84.796 87.9779C84.796 87.5936 84.6912 87.3055 84.4816 87.1133C84.2895 86.9038 84.0275 86.7378 83.6957 86.6156C83.3639 86.4759 82.9971 86.3536 82.5954 86.2488C82.2111 86.1265 81.8444 85.9694 81.4951 85.7772C81.1632 85.5851 80.8838 85.3231 80.6567 84.9913C80.4297 84.642 80.3161 84.1704 80.3161 83.5766C80.3161 83.0701 80.4122 82.6422 80.6043 82.2929C80.7964 81.9261 81.041 81.6292 81.3379 81.4021C81.6348 81.1751 81.9666 81.0092 82.3334 80.9044C82.7002 80.7821 83.0408 80.721 83.3551 80.721C83.5472 80.721 83.7568 80.7385 83.9839 80.7734C84.2284 80.8083 84.4816 80.8695 84.7436 80.9568C84.9881 81.0441 85.2239 81.1489 85.451 81.2712C85.6955 81.3934 85.9051 81.5506 86.0797 81.7427V83.8648H84.5864V82.6073C84.4118 82.5199 84.2284 82.4588 84.0363 82.4239C83.8442 82.3715 83.6346 82.3453 83.4075 82.3453C83.2154 82.3453 83.0233 82.3715 82.8312 82.4239C82.6565 82.4763 82.4993 82.5461 82.3596 82.6335C82.2373 82.7557 82.1413 82.8954 82.0714 83.0526C82.0016 83.2098 81.9754 83.3932 81.9928 83.6028C82.0103 83.8997 82.1325 84.1355 82.3596 84.3101C82.6041 84.4848 82.8923 84.6333 83.2241 84.7555C83.556 84.8952 83.914 85.0437 84.2983 85.2009C84.6825 85.3406 85.0318 85.5153 85.3462 85.7248C85.678 85.9519 85.9487 86.2401 86.1583 86.5894C86.3679 86.9387 86.4727 87.3928 86.4727 87.9517C86.4727 88.2137 86.4203 88.5193 86.3155 88.8686C86.2107 89.2179 86.0361 89.5498 85.7916 89.8641ZM94.3622 89.8641C94.1177 90.1785 93.7771 90.4405 93.3405 90.6501C92.9213 90.8597 92.3886 90.9645 91.7424 90.9645C91.1486 90.9645 90.5635 90.8946 89.9871 90.7549C89.4283 90.5977 88.9567 90.327 88.5724 89.9427V87.8207H90.0657V88.9996C90.3277 89.1568 90.5897 89.2529 90.8517 89.2878C91.1311 89.3227 91.4455 89.3402 91.7948 89.3402C91.9869 89.3402 92.1791 89.314 92.3712 89.2616C92.5633 89.2092 92.7467 89.1219 92.9213 88.9996C93.0436 88.8948 93.1484 88.7638 93.2357 88.6066C93.323 88.432 93.3667 88.2224 93.3667 87.9779C93.3667 87.5936 93.2619 87.3055 93.0523 87.1133C92.8602 86.9038 92.5982 86.7378 92.2664 86.6156C91.9345 86.4759 91.5678 86.3536 91.1661 86.2488C90.7818 86.1265 90.415 85.9694 90.0657 85.7772C89.7339 85.5851 89.4545 85.3231 89.2274 84.9913C89.0003 84.642 88.8868 84.1704 88.8868 83.5766C88.8868 83.0701 88.9829 82.6422 89.175 82.2929C89.3671 81.9261 89.6116 81.6292 89.9086 81.4021C90.2055 81.1751 90.5373 81.0092 90.9041 80.9044C91.2709 80.7821 91.6114 80.721 91.9258 80.721C92.1179 80.721 92.3275 80.7385 92.5546 80.7734C92.7991 80.8083 93.0523 80.8695 93.3143 80.9568C93.5588 81.0441 93.7946 81.1489 94.0217 81.2712C94.2662 81.3934 94.4758 81.5506 94.6504 81.7427V83.8648H93.1571V82.6073C92.9825 82.5199 92.7991 82.4588 92.607 82.4239C92.4148 82.3715 92.2053 82.3453 91.9782 82.3453C91.7861 82.3453 91.594 82.3715 91.4018 82.4239C91.2272 82.4763 91.07 82.5461 90.9303 82.6335C90.808 82.7557 90.712 82.8954 90.6421 83.0526C90.5722 83.2098 90.546 83.3932 90.5635 83.6028C90.581 83.8997 90.7032 84.1355 90.9303 84.3101C91.1748 84.4848 91.463 84.6333 91.7948 84.7555C92.1267 84.8952 92.4847 85.0437 92.8689 85.2009C93.2532 85.3406 93.6025 85.5153 93.9169 85.7248C94.2487 85.9519 94.5194 86.2401 94.729 86.5894C94.9386 86.9387 95.0434 87.3928 95.0434 87.9517C95.0434 88.2137 94.991 88.5193 94.8862 88.8686C94.7814 89.2179 94.6067 89.5498 94.3622 89.8641Z" fill="#3C3C3C"/>
<circle cx="69.8617" cy="26.471" r="3.54766" fill="#CEB26B"/>
<circle cx="65.2224" cy="30.0184" r="3.54766" fill="#CEB26B"/>
<circle cx="66.8598" cy="34.9305" r="3.54766" fill="#CEB26B"/>
<circle cx="74.5009" cy="30.2913" r="3.54766" fill="#CEB26B"/>
<circle cx="72.8635" cy="34.9305" r="3.54766" fill="#CEB26B"/>
<circle cx="69.8617" cy="31.3828" r="2.45607" fill="#FBD26A"/>
<circle cx="116.254" cy="74.2278" r="3.54766" fill="#CEB26B"/>
<circle cx="111.615" cy="77.7757" r="3.54766" fill="#CEB26B"/>
<circle cx="113.252" cy="82.6878" r="3.54766" fill="#CEB26B"/>
<circle cx="120.893" cy="78.0481" r="3.54766" fill="#CEB26B"/>
<circle cx="119.256" cy="82.6878" r="3.54766" fill="#CEB26B"/>
<circle cx="116.254" cy="79.1402" r="2.45607" fill="#FBD26A"/>
<circle cx="38.7514" cy="96.8782" r="3.54766" fill="#B3A98E"/>
<circle cx="34.1122" cy="100.426" r="3.54766" fill="#B3A98E"/>
<circle cx="35.7496" cy="105.338" r="3.54766" fill="#B3A98E"/>
<circle cx="43.3907" cy="100.699" r="3.54766" fill="#B3A98E"/>
<circle cx="41.7533" cy="105.338" r="3.54766" fill="#B3A98E"/>
<circle cx="38.7514" cy="101.791" r="2.45607" fill="#FBD26A"/>
</svg>
