<svg width="690" height="138" viewBox="0 0 690 138" fill="none" xmlns="http://www.w3.org/2000/svg">
<path d="M65.536 47.248L40.064 110.096L10.112 47.248L0.64 40.72H38.144L27.264 47.12L45.312 86.544H47.232L62.592 47.12L51.072 40.72H76.288L65.536 47.248ZM88.959 107.536C79.999 107.536 73.855 101.904 73.855 93.968C73.855 81.424 97.151 72.976 114.559 65.424V59.28C114.559 50.064 108.799 43.536 100.863 43.536C97.919 43.536 95.487 44.176 92.927 45.84C85.631 50.576 90.239 67.728 79.999 67.728C76.159 67.728 73.471 64.784 73.471 60.688C73.471 49.552 99.711 38.928 109.311 38.928C121.471 38.928 129.663 46.992 129.663 58.768V95.888L138.111 98.32L114.559 107.536V92.688C107.007 100.88 98.175 107.536 88.959 107.536ZM99.071 99.344C104.703 99.344 109.823 95.12 114.559 89.744V67.6C100.479 73.488 88.831 79.632 88.831 89.232C88.831 95.248 93.055 99.344 99.071 99.344ZM141.944 106L149.88 100.368V14.736L141.048 11.152L165.24 0.527992V100.368L173.176 106H141.944ZM209.688 107.536C191.512 107.536 178.712 94.48 178.712 74.768C178.712 53.776 191.896 38.928 210.072 38.928C225.304 38.928 235.672 48.912 235.672 63.632V64.656H194.2C194.2 66.064 194.072 67.344 194.072 68.752C194.072 85.136 202.904 96.784 216.472 96.784C226.84 96.784 234.008 90.64 237.592 78.864C234.904 96.784 224.28 107.536 209.688 107.536ZM194.456 62.608H216.984C220.184 62.608 221.336 60.56 221.336 57.36C221.336 48.656 216.6 40.976 210.072 40.976C202.136 40.976 195.992 49.552 194.456 62.608ZM243.084 106L251.148 100.368V53.136L242.188 49.552L266.38 38.928V51.472C271.116 45.072 278.156 38.928 285.708 38.928C292.108 38.928 296.46 42.768 296.46 48.144C296.46 52.88 293.516 56.08 289.42 56.08C281.868 56.08 281.228 47.12 276.236 47.12C272.524 47.12 268.94 51.088 266.38 54.672V100.368L275.852 106H243.084ZM325.011 26.768H307.731V9.23199H325.011V26.768ZM301.459 106L309.523 100.368V53.136L300.563 49.552L324.755 38.928V100.368L332.947 106H301.459ZM361.58 137.232H342.38L370.156 107.152L341.612 47.248L332.14 40.72H369.644L358.764 47.12L376.812 86.544H378.732L394.092 47.12L382.572 40.72H407.788L397.036 47.248L372.46 107.792L361.58 137.232ZM420.459 107.536C411.499 107.536 405.355 101.904 405.355 93.968C405.355 81.424 428.651 72.976 446.059 65.424V59.28C446.059 50.064 440.299 43.536 432.363 43.536C429.419 43.536 426.987 44.176 424.427 45.84C417.131 50.576 421.739 67.728 411.499 67.728C407.659 67.728 404.971 64.784 404.971 60.688C404.971 49.552 431.211 38.928 440.811 38.928C452.971 38.928 461.163 46.992 461.163 58.768V95.888L469.611 98.32L446.059 107.536V92.688C438.507 100.88 429.675 107.536 420.459 107.536ZM430.571 99.344C436.203 99.344 441.323 95.12 446.059 89.744V67.6C431.979 73.488 420.331 79.632 420.331 89.232C420.331 95.248 424.555 99.344 430.571 99.344ZM528.196 107.536C516.932 107.536 509.636 101.136 510.02 90.384L511.812 50.704L499.78 46.352L510.02 38.032V29.2L525.508 22.16V42H547.14V47.376H525.508V89.488C525.508 95.504 530.116 99.6 537.156 99.6C542.532 99.6 548.548 96.528 551.876 91.92C546.884 101.008 537.412 107.536 528.196 107.536ZM582.938 107.536C564.762 107.536 551.962 94.48 551.962 74.768C551.962 53.776 565.146 38.928 583.322 38.928C598.554 38.928 608.922 48.912 608.922 63.632V64.656H567.45C567.45 66.064 567.322 67.344 567.322 68.752C567.322 85.136 576.154 96.784 589.722 96.784C600.09 96.784 607.258 90.64 610.842 78.864C608.154 96.784 597.53 107.536 582.938 107.536ZM567.706 62.608H590.234C593.434 62.608 594.586 60.56 594.586 57.36C594.586 48.656 589.85 40.976 583.322 40.976C575.386 40.976 569.242 49.552 567.706 62.608ZM616.334 106L624.398 100.368V53.264L615.438 49.552L639.63 38.928V50.448C647.566 45.328 657.806 38.928 663.822 38.928C674.446 38.928 681.998 46.608 681.998 58.128V100.368L689.934 106H658.062L666.766 100.368V58.896C666.766 51.728 661.902 46.224 655.758 46.224C650.894 46.224 645.006 49.168 639.63 52.24V100.368L648.206 106H616.334Z" fill="white"/>
</svg>
