<svg width="87" height="65" viewBox="0 0 87 65" fill="none" xmlns="http://www.w3.org/2000/svg">
<path d="M28.6311 15.3229C28.6311 15.0912 28.7202 14.913 28.8984 14.7883C29.0766 14.6457 29.335 14.5744 29.6736 14.5744H38.2013C38.5756 14.5744 38.8429 14.6368 39.0033 14.7615C39.1637 14.8863 39.2439 15.0734 39.2439 15.3229C39.2439 15.4833 39.1815 15.6259 39.0568 15.7506C38.9498 15.8754 38.736 15.9912 38.4152 16.0982L37.2657 16.4724C36.7488 16.6685 36.3122 16.9982 35.9558 17.4615C35.5993 17.9071 35.2607 18.611 34.9399 19.5734L25.4231 47.8297C25.2806 48.2574 25.1736 48.6317 25.1024 48.9525C25.0311 49.2555 24.9954 49.5762 24.9954 49.9149V51.0911C24.9954 51.3762 24.9152 51.599 24.7548 51.7594C24.6123 51.9198 24.3984 52 24.1133 52H19.1945C18.9093 52 18.6865 51.9198 18.5261 51.7594C18.3658 51.599 18.2856 51.3673 18.2856 51.0644V49.9149C18.2856 49.6297 18.2499 49.3535 18.1786 49.0862C18.1073 48.801 18.0004 48.4624 17.8578 48.0703L7.45887 17.916C7.31629 17.4704 7.14699 17.1496 6.95095 16.9536C6.77273 16.7397 6.52323 16.5794 6.20243 16.4724L4.97274 16.1516C4.43809 15.9734 4.17076 15.6972 4.17076 15.3229C4.17076 15.0912 4.25987 14.913 4.43809 14.7883C4.6163 14.6457 4.88363 14.5744 5.24006 14.5744H16.7885C17.1628 14.5744 17.4301 14.6457 17.5905 14.7883C17.7687 14.913 17.8578 15.0912 17.8578 15.3229C17.8578 15.519 17.7865 15.6794 17.644 15.8041C17.5014 15.9289 17.2875 16.0358 17.0024 16.1249L14.6499 16.4724C14.2222 16.5615 13.9549 16.7397 13.8479 17.0071C13.7588 17.2744 13.8212 17.711 14.0351 18.317L24.3806 48.5782L22.643 50.0218L32.9083 19.4665C33.1934 18.6288 33.2291 17.9784 33.0152 17.515C32.8192 17.0338 32.2756 16.6774 31.3845 16.4457L29.4865 16.0982C29.2014 16.0269 28.9875 15.9378 28.8449 15.8308C28.7023 15.7061 28.6311 15.5368 28.6311 15.3229ZM47.1488 14.5744H67.0378C67.5546 14.5744 67.9824 14.4942 68.321 14.3338C68.6596 14.1556 68.9626 13.9863 69.2299 13.8259C69.4972 13.6477 69.7645 13.5586 70.0319 13.5586C70.3883 13.5586 70.6645 13.6566 70.8606 13.8526C71.0566 14.0308 71.217 14.3427 71.3418 14.7883L73.1328 23.4764C73.2041 23.815 73.1863 24.0912 73.0794 24.3051C72.9724 24.5189 72.7764 24.6526 72.4913 24.7061C72.2418 24.7595 72.0101 24.7328 71.7962 24.6259C71.6002 24.5189 71.4309 24.314 71.2883 24.011C70.415 21.8368 69.6398 20.2061 68.9626 19.1189C68.3032 18.014 67.617 17.2744 66.9042 16.9001C66.2091 16.5259 65.3715 16.3388 64.3913 16.3388H60.1408V48.8188C60.1408 49.1574 60.2477 49.4248 60.4616 49.6208C60.6755 49.8168 60.9784 49.9594 61.3705 50.0485L63.322 50.396C63.8745 50.5386 64.1507 50.8238 64.1507 51.2515C64.1507 51.7505 63.8032 52 63.1081 52H51.1319C50.7755 52 50.5171 51.9287 50.3567 51.7861C50.1963 51.6436 50.1161 51.4653 50.1161 51.2515C50.1161 50.8238 50.3834 50.5386 50.9181 50.396L52.8696 50.0485C53.2795 49.9594 53.5824 49.8168 53.7785 49.6208C53.9923 49.4248 54.0993 49.1574 54.0993 48.8188V16.3388H49.8488C48.8864 16.3388 48.0488 16.5348 47.3359 16.9269C46.6409 17.319 45.9547 18.0586 45.2775 19.1457C44.6181 20.2328 43.8429 21.8546 42.9518 24.011C42.827 24.314 42.6577 24.5189 42.4439 24.6259C42.2478 24.7328 42.0161 24.7595 41.7488 24.7061C41.4815 24.6526 41.2944 24.5189 41.1874 24.3051C41.0805 24.0912 41.0627 23.815 41.134 23.4764L42.925 14.7883C43.032 14.3427 43.1835 14.0308 43.3795 13.8526C43.5755 13.6566 43.8518 13.5586 44.2082 13.5586C44.4934 13.5586 44.7607 13.6477 45.0102 13.8259C45.2597 13.9863 45.5448 14.1556 45.8656 14.3338C46.2042 14.4942 46.632 14.5744 47.1488 14.5744ZM77.3699 52.4812C76.6927 52.4812 76.069 52.303 75.4987 51.9465C74.9462 51.5901 74.5006 51.1267 74.162 50.5564C73.8412 49.9683 73.6809 49.3357 73.6809 48.6584C73.6809 47.9634 73.8412 47.3307 74.162 46.7604C74.5006 46.1723 74.9462 45.7089 75.4987 45.3703C76.069 45.0317 76.6927 44.8624 77.3699 44.8624C78.065 44.8624 78.6888 45.0317 79.2412 45.3703C79.8115 45.7089 80.2571 46.1634 80.5779 46.7337C80.8986 47.304 81.059 47.9456 81.059 48.6584C81.059 49.3357 80.8986 49.9683 80.5779 50.5564C80.2571 51.1267 79.8115 51.5901 79.2412 51.9465C78.6888 52.303 78.065 52.4812 77.3699 52.4812Z" fill="#1E74DA"/>
</svg>
