<svg width="216" height="43" viewBox="0 0 216 43" fill="none" xmlns="http://www.w3.org/2000/svg">
<path d="M20.48 14.64L12.52 34.28L3.16 14.64L0.2 12.6H11.92L8.52 14.6L14.16 26.92H14.76L19.56 14.6L15.96 12.6H23.84L20.48 14.64ZM27.7997 33.48C24.9997 33.48 23.0797 31.72 23.0797 29.24C23.0797 25.32 30.3597 22.68 35.7997 20.32V18.4C35.7997 15.52 33.9997 13.48 31.5197 13.48C30.5997 13.48 29.8397 13.68 29.0397 14.2C26.7597 15.68 28.1997 21.04 24.9997 21.04C23.7997 21.04 22.9597 20.12 22.9597 18.84C22.9597 15.36 31.1597 12.04 34.1597 12.04C37.9597 12.04 40.5197 14.56 40.5197 18.24V29.84L43.1597 30.6L35.7997 33.48V28.84C33.4397 31.4 30.6797 33.48 27.7997 33.48ZM30.9597 30.92C32.7197 30.92 34.3197 29.6 35.7997 27.92V21C31.3997 22.84 27.7597 24.76 27.7597 27.76C27.7597 29.64 29.0797 30.92 30.9597 30.92ZM44.3575 33L46.8375 31.24V4.48L44.0775 3.36L51.6375 0.0399976V31.24L54.1175 33H44.3575ZM65.5275 33.48C59.8475 33.48 55.8475 29.4 55.8475 23.24C55.8475 16.68 59.9675 12.04 65.6475 12.04C70.4075 12.04 73.6475 15.16 73.6475 19.76V20.08H60.6875C60.6875 20.52 60.6475 20.92 60.6475 21.36C60.6475 26.48 63.4075 30.12 67.6475 30.12C70.8875 30.12 73.1275 28.2 74.2475 24.52C73.4075 30.12 70.0875 33.48 65.5275 33.48ZM60.7675 19.44H67.8075C68.8075 19.44 69.1675 18.8 69.1675 17.8C69.1675 15.08 67.6875 12.68 65.6475 12.68C63.1675 12.68 61.2475 15.36 60.7675 19.44ZM75.9638 33L78.4838 31.24V16.48L75.6838 15.36L83.2438 12.04V15.96C84.7238 13.96 86.9238 12.04 89.2838 12.04C91.2838 12.04 92.6438 13.24 92.6438 14.92C92.6438 16.4 91.7238 17.4 90.4438 17.4C88.0838 17.4 87.8838 14.6 86.3238 14.6C85.1638 14.6 84.0438 15.84 83.2438 16.96V31.24L86.2038 33H75.9638ZM101.566 8.24H96.1659V2.76H101.566V8.24ZM94.2059 33L96.7259 31.24V16.48L93.9259 15.36L101.486 12.04V31.24L104.046 33H94.2059ZM112.994 42.76H106.994L115.674 33.36L106.754 14.64L103.794 12.6H115.514L112.114 14.6L117.754 26.92H118.354L123.154 14.6L119.554 12.6H127.434L124.074 14.64L116.394 33.56L112.994 42.76ZM131.393 33.48C128.593 33.48 126.673 31.72 126.673 29.24C126.673 25.32 133.953 22.68 139.393 20.32V18.4C139.393 15.52 137.593 13.48 135.113 13.48C134.193 13.48 133.433 13.68 132.633 14.2C130.353 15.68 131.793 21.04 128.593 21.04C127.393 21.04 126.553 20.12 126.553 18.84C126.553 15.36 134.753 12.04 137.753 12.04C141.553 12.04 144.113 14.56 144.113 18.24V29.84L146.753 30.6L139.393 33.48V28.84C137.033 31.4 134.273 33.48 131.393 33.48ZM134.553 30.92C136.313 30.92 137.913 29.6 139.393 27.92V21C134.993 22.84 131.353 24.76 131.353 27.76C131.353 29.64 132.673 30.92 134.553 30.92ZM165.061 33.48C161.541 33.48 159.261 31.48 159.381 28.12L159.941 15.72L156.181 14.36L159.381 11.76V9L164.221 6.8V13H170.981V14.68H164.221V27.84C164.221 29.72 165.661 31 167.861 31C169.541 31 171.421 30.04 172.461 28.6C170.901 31.44 167.941 33.48 165.061 33.48ZM182.168 33.48C176.488 33.48 172.488 29.4 172.488 23.24C172.488 16.68 176.608 12.04 182.288 12.04C187.048 12.04 190.288 15.16 190.288 19.76V20.08H177.328C177.328 20.52 177.288 20.92 177.288 21.36C177.288 26.48 180.048 30.12 184.288 30.12C187.528 30.12 189.768 28.2 190.888 24.52C190.048 30.12 186.728 33.48 182.168 33.48ZM177.408 19.44H184.448C185.448 19.44 185.808 18.8 185.808 17.8C185.808 15.08 184.328 12.68 182.288 12.68C179.808 12.68 177.888 15.36 177.408 19.44ZM192.604 33L195.124 31.24V16.52L192.324 15.36L199.884 12.04V15.64C202.364 14.04 205.564 12.04 207.444 12.04C210.764 12.04 213.124 14.44 213.124 18.04V31.24L215.604 33H205.644L208.364 31.24V18.28C208.364 16.04 206.844 14.32 204.924 14.32C203.404 14.32 201.564 15.24 199.884 16.2V31.24L202.564 33H192.604Z" fill="#6E8F6D"/>
</svg>
